# xmcd
#
# Track frame offsets:
#	150
#	11959
#	23716
#	33666
#	47046
#	58928
#	70331
#	81343
#	93448
#	105483
#	115667
#	126520
#	139885
#	151587
#	165767
#	176338
#	185509
#	197454
#	206537
#	216287
#	227930
#	237835
#	248525
#	260157
#	272134
#
# Disc length: 3798 seconds
#
# Revision: 0
# Processed by: cddbd v1.5.2PL0 Copyright (c) Steve Scherf et al.
# Submitted via: audiograbber 1.83.01
#
DISCID=600ed419
DTITLE=Patsy Cline - Reflections - Disc 1 of 2
DYEAR=2006
DGENRE=Country
TTITLE0=Walkin' After Midnight
TTITLE1=I've Loved And Lost Again
TTITLE2=I'm Blue Again
TTITLE3=If I Could See The World Through The Eyes Of A Child
TTITLE4=Lonely Street
TTITLE5=There He Goes
TTITLE6=Got A Lot Of Rhythm In My Soul
TTITLE7=If I Could Only Stay Asleep
TTITLE8=Never No More
TTITLE9=Turn The Cards Slowly
TTITLE10=Lovesick Blues
TTITLE11=Life's Railway To Heaven
TTITLE12=Crazy Dreams
TTITLE13=A Church A Courtroom And Then Goodbye
TTITLE14=Walkin Dreams
TTITLE15=Try Again
TTITLE16=In Care Of The Blues
TTITLE17=Ain't No Wheels On This Ship
TTITLE18=Love Me, Love Me Honey Do
TTITLE19=Just Out Of Reach
TTITLE20=I'm Movin' Along
TTITLE21=Too Many Secrets
TTITLE22=Hungry For Love
TTITLE23=Let The Teardrops Fall
TTITLE24=Just A Closer Walk With Thee
EXTD=
EXTT0=
EXTT1=
EXTT2=
EXTT3=
EXTT4=
EXTT5=
EXTT6=
EXTT7=
EXTT8=
EXTT9=
EXTT10=
EXTT11=
EXTT12=
EXTT13=
EXTT14=
EXTT15=
EXTT16=
EXTT17=
EXTT18=
EXTT19=
EXTT20=
EXTT21=
EXTT22=
EXTT23=
EXTT24=
PLAYORDER=
